<?xml version="1.0" encoding="UTF-8"?>
<svg xmlns="http://www.w3.org/2000/svg" xmlns:xlink="http://www.w3.org/1999/xlink" width="24px" height="24px" viewBox="0 0 24 24" version="1.1">
<defs>
<radialGradient id="radial0" gradientUnits="userSpaceOnUse" cx="0" cy="0" fx="0" fy="0" r="1" gradientTransform="matrix(11.997785,0,0,11.997785,11.997114,11.997885)">
<stop offset="0" style="stop-color:rgb(43.137255%,43.137255%,43.137255%);stop-opacity:1;"/>
<stop offset="1" style="stop-color:rgb(100%,100%,100%);stop-opacity:0;"/>
</radialGradient>
<radialGradient id="radial1" gradientUnits="userSpaceOnUse" cx="0" cy="0" fx="0" fy="0" r="1" gradientTransform="matrix(5.312795,-5.312795,5.312795,5.312795,11.493129,11.557108)">
<stop offset="0" style="stop-color:rgb(30.196078%,30.196078%,30.196078%);stop-opacity:1;"/>
<stop offset="0.79" style="stop-color:rgb(14.509804%,14.509804%,14.509804%);stop-opacity:1;"/>
<stop offset="1" style="stop-color:rgb(10.196078%,10.196078%,10.196078%);stop-opacity:1;"/>
</radialGradient>
<radialGradient id="radial2" gradientUnits="userSpaceOnUse" cx="0" cy="0" fx="0" fy="0" r="1" gradientTransform="matrix(2.673908,-2.673908,2.673908,2.673908,10.592459,19.790601)">
<stop offset="0" style="stop-color:rgb(100%,100%,100%);stop-opacity:1;"/>
<stop offset="0.3295" style="stop-color:rgb(99.215686%,99.215686%,99.215686%);stop-opacity:1;"/>
<stop offset="0.5185" style="stop-color:rgb(95.686275%,95.686275%,95.686275%);stop-opacity:1;"/>
<stop offset="0.6721" style="stop-color:rgb(90.196078%,90.196078%,90.196078%);stop-opacity:1;"/>
<stop offset="0.8065" style="stop-color:rgb(82.745098%,82.745098%,82.745098%);stop-opacity:1;"/>
<stop offset="0.9274" style="stop-color:rgb(72.54902%,72.54902%,72.54902%);stop-opacity:1;"/>
<stop offset="1" style="stop-color:rgb(65.098039%,65.098039%,65.098039%);stop-opacity:1;"/>
</radialGradient>
<radialGradient id="radial3" gradientUnits="userSpaceOnUse" cx="0" cy="0" fx="0" fy="0" r="1" gradientTransform="matrix(2.673908,-2.673908,2.673908,2.673908,19.733371,10.649639)">
<stop offset="0" style="stop-color:rgb(100%,100%,100%);stop-opacity:1;"/>
<stop offset="0.3295" style="stop-color:rgb(99.215686%,99.215686%,99.215686%);stop-opacity:1;"/>
<stop offset="0.5185" style="stop-color:rgb(95.686275%,95.686275%,95.686275%);stop-opacity:1;"/>
<stop offset="0.6721" style="stop-color:rgb(90.196078%,90.196078%,90.196078%);stop-opacity:1;"/>
<stop offset="0.8065" style="stop-color:rgb(82.745098%,82.745098%,82.745098%);stop-opacity:1;"/>
<stop offset="0.9274" style="stop-color:rgb(72.54902%,72.54902%,72.54902%);stop-opacity:1;"/>
<stop offset="1" style="stop-color:rgb(65.098039%,65.098039%,65.098039%);stop-opacity:1;"/>
</radialGradient>
<linearGradient id="linear0" gradientUnits="userSpaceOnUse" x1="15.651" y1="57.0625" x2="71.249397" y2="29.8811" gradientTransform="matrix(0.167832,0,0,0.167832,0,0)">
<stop offset="0" style="stop-color:rgb(97.647059%,73.333333%,13.72549%);stop-opacity:1;"/>
<stop offset="0.28" style="stop-color:rgb(96.862745%,68.235294%,13.72549%);stop-opacity:1;"/>
<stop offset="0.8" style="stop-color:rgb(94.509804%,55.294118%,12.941176%);stop-opacity:1;"/>
<stop offset="1" style="stop-color:rgb(93.333333%,49.411765%,12.941176%);stop-opacity:1;"/>
</linearGradient>
<radialGradient id="radial4" gradientUnits="userSpaceOnUse" cx="0" cy="0" fx="0" fy="0" r="1" gradientTransform="matrix(2.673647,-2.673647,2.673647,2.673647,6.806434,7.213947)">
<stop offset="0" style="stop-color:rgb(100%,100%,100%);stop-opacity:1;"/>
<stop offset="0.4607" style="stop-color:rgb(99.215686%,99.215686%,99.215686%);stop-opacity:1;"/>
<stop offset="0.7224" style="stop-color:rgb(95.686275%,95.686275%,95.686275%);stop-opacity:1;"/>
<stop offset="0.9336" style="stop-color:rgb(90.588235%,90.588235%,90.588235%);stop-opacity:1;"/>
<stop offset="1" style="stop-color:rgb(87.843137%,87.843137%,87.843137%);stop-opacity:1;"/>
</radialGradient>
</defs>
<g id="surface1">
<path style=" stroke:none;fill-rule:nonzero;fill:url(#radial0);" d="M 12 24 C 18.628906 24 24 18.628906 24 12 C 24 5.371094 18.628906 0 12 0 C 5.371094 0 0 5.371094 0 12 C 0 18.628906 5.371094 24 12 24 Z M 12 24 "/>
<path style=" stroke:none;fill-rule:nonzero;fill:url(#radial1);" d="M 10.492188 21.828125 C 10.8125 17.46875 8.375 8.382812 6.347656 6.363281 C 8.375 8.382812 17.457031 10.820312 21.8125 10.507812 C 17.449219 10.8125 10.796875 17.460938 10.492188 21.828125 Z M 10.492188 21.828125 "/>
<path style=" stroke:none;fill-rule:nonzero;fill:url(#radial2);" d="M 10.980469 23.535156 C 8.90625 23.726562 7.070312 22.203125 6.878906 20.128906 C 6.691406 18.058594 8.214844 16.222656 10.285156 16.03125 C 12.359375 15.839844 14.195312 17.363281 14.382812 19.4375 C 14.484375 20.546875 14.085938 21.652344 13.296875 22.445312 C 12.671875 23.070312 11.847656 23.453125 10.980469 23.535156 Z M 10.980469 23.535156 "/>
<path style=" stroke:none;fill-rule:nonzero;fill:url(#radial3);" d="M 20.121094 14.390625 C 18.050781 14.582031 16.214844 13.058594 16.023438 10.988281 C 15.832031 8.914062 17.355469 7.078125 19.429688 6.886719 C 21.5 6.695312 23.335938 8.222656 23.527344 10.292969 C 23.625 11.40625 23.230469 12.511719 22.4375 13.304688 C 21.8125 13.925781 20.992188 14.308594 20.121094 14.390625 Z M 20.121094 14.390625 "/>
<path style=" stroke:none;fill-rule:nonzero;fill:url(#linear0);" d="M 12.183594 9 C 11.246094 11.703125 8.289062 13.136719 5.585938 12.199219 C 2.878906 11.261719 1.449219 8.304688 2.382812 5.601562 C 3.320312 2.894531 6.277344 1.460938 8.984375 2.398438 C 10.285156 2.847656 11.351562 3.800781 11.953125 5.035156 C 12.546875 6.277344 12.632812 7.695312 12.183594 9 Z M 12.183594 9 "/>
<path style=" stroke:none;fill-rule:nonzero;fill:url(#radial4);" d="M 7.632812 11.046875 C 5.5625 11.238281 3.726562 9.714844 3.535156 7.640625 C 3.34375 5.570312 4.859375 3.742188 6.933594 3.550781 C 9.003906 3.359375 10.84375 4.882812 11.03125 6.957031 C 11.132812 8.070312 10.734375 9.171875 9.941406 9.964844 C 9.324219 10.582031 8.503906 10.964844 7.632812 11.046875 Z M 7.632812 11.046875 "/>
</g>
</svg>
